<?xml version="1.0" encoding="UTF-8"?>
<svg id="Layer_2" data-name="Layer 2" xmlns="http://www.w3.org/2000/svg" viewBox="0 0 17.1 17.09">
  <g id="Layer_1-2" data-name="Layer 1">
    <g>
      <path d="M4.79,2.19c-.16-.05-.3,.01-.46,.07-.16,.06-.31,.12-.46,.2-.3,.14-.58,.32-.84,.52-.49,.38-.88,.86-1.19,1.41-.1-.02-.2-.02-.29,0-.2,.05-.38,.19-.45,.38C.65,5.14,.11,5.56,.02,6.18c-.09,.58,.18,1.24,.79,1.42,0,0,.02,0,.03,0-.13,.39-.18,.82-.18,1.18,0,.74,.21,1.62,.8,2.11,.09,.08,.22-.02,.17-.13-.31-.64-.61-1.25-.62-1.99,0-.34,.04-.68,.13-1.01,.01-.05,.04-.09,.05-.14,.53-.05,.97-.51,1.22-.96,.32-.58,.54-1.44,.03-1.98-.1-.11-.24-.2-.39-.26,.31-.48,.7-.92,1.15-1.26,.25-.19,.51-.35,.79-.49,.14-.07,.29-.13,.44-.18,.14-.05,.29-.08,.4-.19,.04-.04,.02-.1-.03-.12Zm-2.7,3.45c-.03,.22-.13,.46-.23,.67-.1,.19-.21,.34-.36,.48,.01-.05-.05-.11-.1-.07-.1,.07-.18,.18-.25,.28-.02,0-.07,0-.03,0-.06,0-.09,0-.13,0-.02,0-.05-.01-.07-.02,0,0,0,0,0,0,0,0,0,0-.01,0-.02-.01-.03-.02-.05-.03-.01,0-.01,0-.02,0,0,0,0,0,0,0-.03-.03-.06-.06-.09-.09,0,0-.01-.01-.01-.02-.02-.03-.04-.06-.06-.09-.08-.15-.12-.3-.11-.49,.02-.5,.41-.95,.76-1.32,.02,0,.03-.02,.05-.02,.09-.02,.1,0,.2,.03,.09,.02,.17,.04,.25,.08-.05-.02,.04,.02,.05,.03,0,0,.07,.05,.04,.02-.02-.02,.04,.03,.04,.04,.01,.01,.02,.03,.04,.04,0,0,0,.01,.01,.02,.02,.04,.04,.08,.06,.13,.03,.12,.04,.23,.02,.36Z"/>
      <path d="M16.83,6.53c-.28-.47-.76-.73-1.28-.73,0-.14,0-.27,0-.41,.03,0,.06,0,.05-.04-.04-.1-.07-.19-.11-.29-.02-.11-.03-.22-.06-.33-.06-.23-.15-.44-.27-.65-.02-.04-.05-.07-.07-.11-.07-.18-.14-.37-.22-.54,0,0,.02-.01,.02-.02,.45-.56,.35-1.41-.02-1.98-.39-.59-1.06-.93-1.76-.79-.26,.05-.49,.18-.69,.35-.08-.11-.21-.17-.34-.22-.21-.08-.42-.15-.63-.21-.4-.12-.8-.22-1.21-.28-.83-.14-1.66-.14-2.49-.03-.01,0-.02,.01-.03,.02-.19-.15-.42-.25-.67-.27-.36-.03-.69,.17-.78,.53-.02,.09,.07,.16,.15,.12,.17-.08,.39-.08,.58-.08,.16,0,.33,.07,.44,.21,.26,.33,.16,.82-.12,1.11-.32,.33-.84,.47-1.29,.38-.45-.09-.85-.43-.86-.91,0-.26,.12-.49,.32-.64,0,0,0,.02,.01,.03,.03,.03,.06,.04,.1,.04,.08,0,.15,0,.23,0,.04,0,.08-.02,.1-.04s.04-.07,.04-.1c0-.02-.01-.03-.02-.05,.05,0,.1,.01,.15,.03,.14,.05,.23-.17,.1-.24-.56-.29-1.31,.03-1.49,.64-.21,.71,.25,1.43,.9,1.69,.65,.26,1.44,.13,1.98-.31,.52-.42,.72-1.19,.4-1.79,.73-.07,1.47-.08,2.2,.01,.4,.05,.79,.12,1.18,.23,.19,.05,.37,.11,.55,.17,.12,.04,.24,.08,.35,.09-.21,.23-.36,.52-.37,.84-.01,.35,.13,.71,.36,.97,.11,.13,.25,.24,.4,.31,.08,.04,.16,.08,.25,.05,.07-.02,.13-.02,.21-.04,.07-.01,.06-.11,0-.13-.11-.04-.17-.12-.28-.17-.11-.05-.2-.12-.28-.21-.15-.16-.26-.38-.29-.6-.07-.48,.26-.89,.69-1.06,.47-.19,.99-.07,1.35,.28,.36,.36,.55,.91,.43,1.41-.06,.25-.21,.52-.48,.57-.2,.04-.48-.03-.55-.24-.06-.18-.32-.11-.28,.08,.06,.28,.31,.51,.59,.55,.24,.04,.48-.02,.67-.16,.23,.37,.37,.81,.48,1.23,.08,.33,.11,.67,.1,1.01-.05,0-.09,0-.14,.02-.67,.2-1.37,.87-1.26,1.63,.02,.11,.2,.11,.23,0,.05-.26,.13-.52,.3-.73,.16-.2,.38-.35,.61-.44,.09-.03,.18-.05,.27-.06,.05,.09,.18,.09,.24-.01,.3,.01,.58,.12,.79,.35,.3,.34,.4,.86,.28,1.29-.15,.51-.66,.84-1.19,.78-.3-.03-.55-.21-.69-.46-.14-.25-.2-.59-.06-.85,.09-.18-.15-.31-.26-.15-.2,.29-.26,.66-.16,1,.11,.36,.35,.66,.7,.81,.7,.31,1.6,0,1.97-.66,.31-.55,.27-1.28-.05-1.82Z"/>
      <path d="M15.56,9.27s-.09-.04-.11,0c-.05,.09-.1,.17-.15,.25-.06,.1-.06,.22-.1,.33-.06,.21-.15,.41-.26,.59-.11,.18-.22,.36-.37,.52-.13,.14-.28,.27-.43,.39-.2-.19-.43-.33-.71-.38-.19-.04-.38-.04-.57,0-.09,.02-.21,.05-.28,.11-.04,.03-.06,.07-.08,.11,0,0,0,0-.01,0-.04,0-.09,.01-.13,.02-.07,.02-.14,.05-.21,.09-.14,.07-.26,.21-.34,.34-.15,.25-.22,.56-.22,.85,0,.4,.16,.77,.43,1.04-.08-.02-.2,.04-.26,.09-.24,.19-.45,.39-.7,.56-.24,.16-.5,.28-.77,.36-.31,.09-.61,.21-.92,.3-.16,.04-.31,.08-.47,.11-.08,.01-.15,.02-.22,.05-.05,.02-.09,.05-.13,.07-.02-.1-.03-.21-.07-.31-.16-.36-.41-.68-.76-.87-.2-.11-.39-.17-.62-.15-.04,0-.09,.02-.13,.03-.02-.03-.04-.06-.08-.06-.17-.01-.34-.04-.51,0-.18,.05-.36,.16-.51,.27-.28,.22-.49,.51-.61,.84,0,0,0,0,0,0-.04-.03-.07-.07-.11-.1-.06-.05-.13-.07-.2-.09-.02,0-.04-.02-.06-.03,0,0,0,0-.02,0-.04-.02-.08-.04-.12-.06-.17-.08-.34-.18-.5-.28-.08-.05-.15-.11-.23-.16,.05,.03-.04-.03-.06-.05-.04-.03-.08-.06-.11-.1-.14-.13-.28-.27-.4-.41,0-.01-.03,0-.04-.02,.02-.04,.04-.07,.05-.1,.22-.61,.15-1.31-.18-1.85-.21-.34-.5-.62-.89-.73-.18-.05-.4-.02-.58,.04-.19,.07-.31,.18-.4,.36-.04,.09,.04,.16,.12,.12,.49-.21,1.12-.1,1.42,.36,.28,.43,.34,.99,.19,1.48-.03,.11-.08,.22-.14,.32-.01,0-.03,0-.04,.02-.03,.03-.02,.06-.04,.1-.16,.23-.38,.41-.66,.44-.54,.06-1-.39-1.17-.87-.26-.71,.02-1.56,.25-2.25,.02-.05-.06-.08-.09-.04-.4,.71-.76,1.53-.5,2.35,.19,.61,.74,1.2,1.43,1.19,.34,0,.62-.16,.85-.38,.25,.29,.54,.55,.86,.77,.16,.11,.32,.21,.5,.3,.09,.04,.18,.09,.27,.13,.06,.03,.13,.06,.19,.08,.04,.01,.09,.01,.13,.01,.04,0,.07,0,.11-.01,.02,0,.02,0-.01,0,.05,0,.09-.02,.13-.04,0,.55,.28,1.08,.73,1.42,.61,.46,1.43,.45,2.04-.03,.38-.3,.6-.74,.65-1.19,.02,0,.03,.02,.05,.02,.07,.02,.15,.02,.22,.02,.15,0,.3-.04,.45-.07,.3-.06,.6-.14,.87-.27,.26-.12,.5-.28,.73-.45,.23-.18,.48-.34,.7-.53,.16-.14,.5-.36,.52-.6,0-.03-.01-.04-.02-.06,.14,.13,.3,.24,.5,.3,.58,.18,1.27-.03,1.68-.47,.23-.25,.37-.55,.39-.88,.03-.32-.09-.67-.28-.93-.02-.03-.05-.06-.08-.09,.4-.17,.77-.48,1-.84,.13-.21,.24-.44,.31-.68,.04-.12,.09-.28,.07-.4-.02-.11-.07-.23-.12-.33Zm-7.85,6.9c-.35,.37-.89,.5-1.35,.26-.45-.24-.76-.74-.69-1.26,.04-.29,.2-.56,.41-.77,.11-.1,.23-.19,.36-.26,.05-.03,.1-.06,.15-.09,0,.01,0,.03,0,.04,.05,.04,.08,.07,.14,.09,.01,0,.08,.02,.1,.02,0,0,.01,0,.02,0-.05-.04-.04-.04,.02,0,.11,.07,.27,.13,.39,.18,.22,.09,.44,.24,.59,.43,.32,.41,.18,1-.15,1.35Zm6.16-3.67s0,.01,0,.02c-.02,.03-.02,.12-.03,.15,0,0,0,.02-.01,.03,0,.01-.01,.03-.02,.04-.02,.04-.05,.08-.08,.13,0,0-.01,.01-.01,.02-.02,.02-.03,.03-.05,.05-.02,.02-.04,.04-.06,.06,0,0,0,0-.01,.01-.03,0-.1,.07-.12,.08-.02,.01-.05,.03-.07,.04-.02,0-.09,.05-.04,.02,.05-.03-.02,0-.04,.01-.02,0-.05,.01-.07,.02-.04,.01-.1,.02-.14,.03,0,0,0,0-.01,0-.03,0-.06,0-.08,0-.02,0-.05,0-.07,0-.01,0-.02,0-.03,0-.04,0-.09-.02-.13-.03,0,0-.04-.02-.06-.02,0,0-.02,0-.03-.01-.02-.01-.04-.02-.06-.04-.02-.01-.09-.05-.04-.03,.05,.02,0,0-.02-.02-.02-.02-.04-.04-.06-.07-.01-.01-.06-.06-.02-.02,.04,.04-.01-.02-.02-.04-.02-.03-.04-.1-.07-.13,0,0,0,0,0,0,0-.02-.01-.04-.02-.07,0-.03-.01-.12-.03-.15,0,0,0-.02,0-.02,0-.03,0-.06,0-.09,0-.03,0-.05,0-.08,0-.02,.02-.11,0-.06-.01,.06,0-.03,0-.04,0-.03,.01-.06,.02-.09,0-.03,.01-.05,.02-.08,0-.01,0-.02,.01-.03,0,0,0-.01,0-.02,0,0,0,0,0,0,0-.01,.01-.03,.02-.04,.01-.03,.03-.05,.04-.08,.02-.05,.06-.1,.08-.15,.03-.05,.05-.1,.08-.14,0,0,.01-.02,.02-.03,0-.01,0-.01,0,0-.02,.02,0,0,.03-.04,.04,0,.07,.02,.11,.01,.07,0-.02,0,.05,0,.03,0,.07,0,.1,0,.01,0,.09,.01,.05,0-.04,0,.05,.01,.06,.01,.05,.01,.1,.03,.15,.05,0,0,.02,0,.03,.01,.03,.01,.05,.03,.08,.04,.05,.03,.11,.06,.16,.1,.02,.01,.04,.03,.06,.04,0,0,.02,.01,.02,.02,.05,.04,.09,.08,.13,.13,0,0,.01,.02,.02,.02,.01,.02,.03,.04,.04,.06,.01,.02,.03,.04,.04,.07,0,.01,.01,.02,.02,.03,0,.01,.05,.07,.01,.02-.03-.03,0-.02,0,0,0,.01,0,.02,.01,.04,0,.03,.02,.06,.03,.09,0,0,0,.04,.01,.06,0,.01,0,.03,0,.04,0,.03,0,.05,0,.08Z"/>
    </g>
  </g>
</svg>