<svg width="59" height="13" viewBox="0 0 59 13" fill="none" xmlns="http://www.w3.org/2000/svg">
<path d="M9.17037 5.78979C9.01128 6.73866 8.69593 7.53411 8.22434 8.17616C7.75275 8.8182 7.18031 9.30258 6.50701 9.62928C5.83372 9.95599 5.11355 10.1193 4.3465 10.1193C3.52832 10.1193 2.81809 9.94178 2.21582 9.58667C1.61355 9.23156 1.17463 8.71167 0.899059 8.02701C0.623491 7.34235 0.568093 6.5057 0.732866 5.51707C0.886275 4.5682 1.19878 3.76991 1.67037 3.12218C2.14196 2.47445 2.71724 1.9844 3.39622 1.65201C4.0752 1.31962 4.80105 1.15343 5.57378 1.15343C6.38628 1.15343 7.09224 1.33241 7.69167 1.69036C8.29395 2.04832 8.73145 2.57247 9.00417 3.26281C9.27974 3.95315 9.33514 4.79548 9.17037 5.78979ZM6.784 5.51707C6.86355 5.01707 6.86923 4.59661 6.80105 4.2557C6.73287 3.91195 6.5894 3.65343 6.37065 3.48014C6.1519 3.304 5.85787 3.21593 5.48855 3.21593C5.06809 3.21593 4.69593 3.3182 4.37207 3.52275C4.04821 3.72729 3.77974 4.02133 3.56667 4.40485C3.3536 4.78837 3.20446 5.25002 3.11923 5.78979C3.02832 6.29548 3.0198 6.71593 3.09366 7.05116C3.17037 7.38639 3.32093 7.63781 3.54537 7.80542C3.77264 7.97303 4.06809 8.05684 4.43173 8.05684C4.8465 8.05684 5.21298 7.95741 5.53116 7.75854C5.85218 7.55968 6.11781 7.27133 6.32804 6.89349C6.54111 6.51565 6.69309 6.05684 6.784 5.51707Z" fill="#00031C"/>
<path d="M14.3234 7.13639L14.9371 3.45457H17.2893L16.1984 10H13.9655L14.17 8.7557H14.1018C13.9001 9.17332 13.599 9.50002 13.1984 9.73582C12.8007 9.96877 12.3575 10.0852 11.8689 10.0852C11.4115 10.0852 11.0294 9.98014 10.7226 9.76991C10.4157 9.55968 10.1984 9.26991 10.0706 8.90059C9.94274 8.53127 9.91717 8.10798 9.99387 7.6307L10.6927 3.45457H13.045L12.4314 7.13639C12.3831 7.46025 12.4243 7.71451 12.555 7.89917C12.6885 8.08383 12.903 8.17616 13.1984 8.17616C13.3944 8.17616 13.5706 8.13497 13.7268 8.05258C13.8859 7.96735 14.0166 7.84803 14.1189 7.69462C14.224 7.53837 14.2922 7.3523 14.3234 7.13639Z" fill="#00031C"/>
<path d="M22.3891 3.45457L22.0993 5.15911H17.7868L18.0766 3.45457H22.3891ZM19.1675 1.88639H21.5198L20.5226 7.89491C20.5084 7.98582 20.5113 8.06252 20.5312 8.12502C20.551 8.18468 20.5908 8.23014 20.6505 8.26139C20.713 8.2898 20.7954 8.304 20.8976 8.304C20.9658 8.304 21.0496 8.29548 21.1491 8.27843C21.2485 8.25855 21.3238 8.24434 21.3749 8.23582L21.4431 9.88923C21.3238 9.92332 21.1633 9.96167 20.9616 10.0043C20.7627 10.0497 20.5312 10.0796 20.267 10.0938C19.7158 10.1193 19.267 10.0611 18.9204 9.91906C18.5766 9.77701 18.338 9.55542 18.2045 9.25428C18.0738 8.95031 18.051 8.57105 18.1363 8.1165L19.1675 1.88639Z" fill="#00031C"/>
<path d="M25.3241 10.1193C24.6139 10.1193 24.0287 9.97872 23.5684 9.69747C23.1111 9.41337 22.79 9.01849 22.6054 8.51281C22.4207 8.00428 22.3838 7.4148 22.4946 6.74434C22.6054 6.07389 22.8369 5.48582 23.1892 4.98014C23.5415 4.47161 23.9946 4.07673 24.5486 3.79548C25.1025 3.51139 25.7361 3.36934 26.4491 3.36934C27.1565 3.36934 27.7389 3.51139 28.1963 3.79548C28.6565 4.07673 28.979 4.47161 29.1636 4.98014C29.3511 5.48582 29.3895 6.07389 29.2787 6.74434C29.1679 7.4148 28.9349 8.00428 28.5798 8.51281C28.2247 9.01849 27.7702 9.41337 27.2162 9.69747C26.665 9.97872 26.0344 10.1193 25.3241 10.1193ZM25.6139 8.3807C25.8184 8.3807 26.0045 8.31394 26.1721 8.18042C26.3426 8.0469 26.4875 7.85656 26.6068 7.6094C26.729 7.36224 26.8184 7.0682 26.8753 6.72729C26.9321 6.38354 26.9406 6.08951 26.9008 5.84519C26.8611 5.59803 26.7787 5.40769 26.6537 5.27417C26.5287 5.14065 26.3639 5.07389 26.1594 5.07389C25.9548 5.07389 25.7673 5.14065 25.5969 5.27417C25.4264 5.40769 25.2815 5.59803 25.1622 5.84519C25.0429 6.08951 24.9548 6.38354 24.898 6.72729C24.8412 7.0682 24.8312 7.36224 24.8682 7.6094C24.9079 7.85656 24.9903 8.0469 25.1153 8.18042C25.2432 8.31394 25.4094 8.3807 25.6139 8.3807Z" fill="#00031C"/>
<path d="M32.0486 10.0852C31.5827 10.0852 31.1736 9.96309 30.8213 9.71877C30.4719 9.47445 30.2204 9.10372 30.067 8.60656C29.9165 8.1094 29.9037 7.48298 30.0287 6.72729C30.1594 5.93752 30.3881 5.29548 30.7148 4.80116C31.0443 4.30684 31.4221 3.94462 31.8483 3.71451C32.2773 3.4844 32.7077 3.36934 33.1395 3.36934C33.4633 3.36934 33.7375 3.42616 33.9619 3.53979C34.1892 3.65059 34.3696 3.79974 34.5031 3.98724C34.6366 4.1719 34.7275 4.37502 34.7758 4.59661H34.8099L35.3639 1.27275H37.7162L36.2673 10H33.9321L34.1111 8.92616H34.0599C33.9321 9.14775 33.7687 9.34661 33.5699 9.52275C33.3738 9.69605 33.148 9.83383 32.8923 9.9361C32.6366 10.0355 32.3554 10.0852 32.0486 10.0852ZM33.2162 8.27843C33.4321 8.27843 33.6281 8.21593 33.8042 8.09093C33.9804 7.96309 34.1295 7.78411 34.2517 7.554C34.3738 7.32104 34.4605 7.04548 34.5116 6.72729C34.5656 6.40343 34.5699 6.12644 34.5244 5.89633C34.479 5.66337 34.388 5.48582 34.2517 5.36366C34.1182 5.23866 33.9434 5.17616 33.7275 5.17616C33.5116 5.17616 33.317 5.23866 33.1437 5.36366C32.9704 5.48582 32.8241 5.66337 32.7048 5.89633C32.5883 6.12644 32.5031 6.40343 32.4491 6.72729C32.3952 7.05116 32.3881 7.32957 32.4278 7.56252C32.4704 7.79264 32.5585 7.97019 32.692 8.09519C32.8256 8.21735 33.0003 8.27843 33.2162 8.27843Z" fill="#00031C"/>
<path d="M40.5415 10.1193C39.8426 10.1193 39.263 9.98582 38.8028 9.71877C38.3426 9.44889 38.0187 9.06252 37.8312 8.55968C37.6437 8.054 37.6096 7.44889 37.729 6.74434C37.8426 6.0682 38.077 5.4773 38.4321 4.97161C38.79 4.46593 39.2403 4.07247 39.7829 3.79122C40.3284 3.50997 40.9392 3.36934 41.6153 3.36934C42.1096 3.36934 42.5429 3.44605 42.915 3.59945C43.29 3.75286 43.5954 3.97587 43.8312 4.26849C44.067 4.5611 44.2261 4.9148 44.3085 5.32957C44.3937 5.7415 44.3937 6.20741 44.3085 6.72729L44.2233 7.27275H38.3767L38.5812 5.97729H42.2631C42.2915 5.78979 42.273 5.62502 42.2077 5.48298C42.1452 5.33809 42.0443 5.22587 41.9051 5.14633C41.7687 5.06394 41.604 5.02275 41.4108 5.02275C41.2176 5.02275 41.0358 5.06394 40.8653 5.14633C40.6977 5.22872 40.5542 5.34377 40.4349 5.4915C40.3184 5.63923 40.2403 5.81252 40.2006 6.01139L39.9449 7.37502C39.9108 7.58525 39.9236 7.77275 39.9832 7.93752C40.0429 8.1023 40.1466 8.23156 40.2943 8.32531C40.442 8.41906 40.6324 8.46593 40.8653 8.46593C41.0244 8.46593 41.175 8.44462 41.317 8.40201C41.4619 8.35656 41.5898 8.29122 41.7006 8.20599C41.8142 8.11792 41.9051 8.01139 41.9733 7.88639H44.121C43.9676 8.34093 43.7247 8.73582 43.3923 9.07104C43.0628 9.40343 42.6565 9.66195 42.1736 9.84661C41.6934 10.0284 41.1494 10.1193 40.5415 10.1193Z" fill="#00031C"/>
<path d="M45.5901 12.4546C45.3174 12.4546 45.0631 12.4333 44.8273 12.3906C44.5915 12.3509 44.3856 12.2955 44.2094 12.2245L45.002 10.554C45.1839 10.6222 45.3515 10.6662 45.5049 10.6861C45.6611 10.706 45.7989 10.6946 45.9182 10.652C46.0376 10.6094 46.1356 10.5284 46.2123 10.4091L46.289 10.2898L45.1214 3.45457H47.4907L47.789 7.98866H47.8572L49.6895 3.45457H52.2464L48.6839 10.5455C48.502 10.9063 48.2748 11.2301 48.002 11.5171C47.7322 11.8068 47.3998 12.0355 47.0049 12.2031C46.61 12.3708 46.1384 12.4546 45.5901 12.4546Z" fill="#00031C"/>
<path d="M53.0226 6.00002L53.2101 4.86366L55.6817 3.0682C55.8465 2.94889 55.9885 2.83714 56.1079 2.73298C56.2291 2.62692 56.3266 2.51801 56.4005 2.40627C56.4743 2.29453 56.5226 2.17048 56.5454 2.03411C56.57 1.88449 56.5586 1.75665 56.5113 1.65059C56.4658 1.54264 56.392 1.46025 56.2897 1.40343C56.1874 1.34661 56.0643 1.3182 55.9204 1.3182C55.7745 1.3182 55.641 1.34756 55.5198 1.40627C55.3986 1.46498 55.2973 1.55116 55.2158 1.66479C55.1363 1.77843 55.0832 1.91669 55.0567 2.07957H53.5567C53.6249 1.67048 53.7755 1.3182 54.0084 1.02275C54.2433 0.727295 54.5406 0.500022 54.9005 0.340931C55.2622 0.18184 55.6685 0.102295 56.1192 0.102295C56.5851 0.102295 56.9772 0.177106 57.2954 0.326727C57.6135 0.474454 57.8437 0.682788 57.9857 0.951727C58.1296 1.22067 58.1704 1.53601 58.1079 1.89775C58.07 2.12123 57.9857 2.34283 57.855 2.56252C57.7262 2.78222 57.5188 3.02654 57.2329 3.29548C56.9488 3.56252 56.5548 3.8807 56.051 4.25002L55.4317 4.70457L55.426 4.73866H57.6988L57.4885 6.00002H53.0226Z" fill="#00031C"/>
</svg>
