<?xml version="1.0" encoding="UTF-8"?>
<svg xmlns="http://www.w3.org/2000/svg" xmlns:xlink="http://www.w3.org/1999/xlink" width="96pt" height="96pt" viewBox="0 0 96 96" version="1.1">
<g id="surface1">
<path style=" stroke:none;fill-rule:nonzero;fill:#3B3B3B;fill-opacity:1;" d="M 48 12 C 38.085938 12 30 20.085938 30 30 C 30 39.914063 38.085938 48 48 48 C 57.914063 48 66 39.914063 66 30 C 66 20.085938 57.914063 12 48 12 Z M 48 48 C 31.476563 48 18 61.476563 18 78 L 24 78 C 24 64.710938 34.710938 54 48 54 C 61.289063 54 72 64.710938 72 78 L 78 78 C 78 61.476563 64.523438 48 48 48 Z M 48 18 C 54.65625 18 60 23.34375 60 30 C 60 36.65625 54.65625 42 48 42 C 41.34375 42 36 36.65625 36 30 C 36 23.34375 41.34375 18 48 18 Z "/>
</g>
</svg>
