<?xml version="1.0" encoding="UTF-8"?>
<svg xmlns="http://www.w3.org/2000/svg" xmlns:xlink="http://www.w3.org/1999/xlink" width="96pt" height="96pt" viewBox="0 0 96 96" version="1.1">
<g id="surface1">
<path style=" stroke:none;fill-rule:nonzero;fill:#3B3B3B;fill-opacity:1;" d="M 27 18 C 18.726563 18 12 24.726563 12 33 C 12 38.671875 15.1875 43.546875 19.828125 46.078125 C 8.4375 49.265625 0 59.601563 0 72 L 6 72 C 6 60.421875 15.421875 51 27 51 C 34.617188 51 41.648438 55.21875 45.375 62.039063 L 48 66.867188 L 50.625 62.039063 C 54.351563 55.21875 61.382813 51 69 51 C 80.578125 51 90 60.421875 90 72 L 96 72 C 96 59.601563 87.5625 49.265625 76.171875 46.078125 C 80.8125 43.546875 84 38.671875 84 33 C 84 24.726563 77.273438 18 69 18 C 60.726563 18 54 24.726563 54 33 C 54 38.625 57.164063 43.5 61.757813 46.054688 C 56.367188 47.578125 51.539063 50.742188 48 55.171875 C 44.460938 50.742188 39.632813 47.578125 34.242188 46.054688 C 38.835938 43.5 42 38.625 42 33 C 42 24.726563 35.273438 18 27 18 Z M 27 24 C 31.96875 24 36 28.03125 36 33 C 36 37.96875 31.96875 42 27 42 C 22.03125 42 18 37.96875 18 33 C 18 28.03125 22.03125 24 27 24 Z M 69 24 C 73.96875 24 78 28.03125 78 33 C 78 37.96875 73.96875 42 69 42 C 64.03125 42 60 37.96875 60 33 C 60 28.03125 64.03125 24 69 24 Z "/>
</g>
</svg>
